<svg width="360" height="404" viewBox="0 0 360 404" fill="none" xmlns="http://www.w3.org/2000/svg">
<g filter="url(#filter0_f_1_128)">
<g filter="url(#filter1_d_1_128)">
<path d="M190.987 381.122C192.258 384.305 195.895 385.887 198.876 384.197C205.612 380.379 211.308 374.903 215.401 368.247C220.583 359.818 222.918 349.943 222.062 340.082C221.205 330.221 217.202 320.898 210.645 313.492C204.088 306.086 195.324 300.989 185.651 298.957C175.977 296.924 165.908 298.063 156.931 302.206C147.954 306.348 140.546 313.273 135.804 321.958C131.062 330.642 129.236 340.624 130.598 350.428C131.674 358.173 134.693 365.481 139.33 371.69C141.38 374.434 145.345 374.445 147.788 372.041C150.227 369.64 150.205 365.739 148.295 362.901C145.449 358.67 143.584 353.824 142.875 348.718C141.88 341.554 143.214 334.259 146.679 327.913C150.145 321.567 155.558 316.506 162.118 313.479C168.678 310.452 176.037 309.62 183.106 311.105C190.175 312.59 196.579 316.314 201.37 321.727C206.162 327.139 209.087 333.952 209.713 341.158C210.339 348.363 208.632 355.58 204.846 361.739C202.15 366.124 198.501 369.808 194.203 372.536C191.309 374.372 189.717 377.939 190.987 381.122Z" fill="url(#paint0_linear_1_128)" fill-opacity="0.4" shape-rendering="crispEdges"/>
</g>
<g filter="url(#filter2_d_1_128)">
<path d="M116.3 111.748C125.74 135.39 114.253 162.218 90.6438 171.671C67.0348 181.123 40.244 169.62 30.8048 145.978C21.3656 122.336 32.8524 95.5076 56.4613 86.0551C80.0703 76.6026 106.861 88.1056 116.3 111.748ZM42.3141 141.37C49.2119 158.647 68.7897 167.053 86.0422 160.145C103.295 153.238 111.689 133.633 104.791 116.356C97.8932 99.079 78.3155 90.6731 61.0629 97.5806C43.8104 104.488 35.4163 124.093 42.3141 141.37Z" fill="url(#paint1_linear_1_128)" fill-opacity="0.2" shape-rendering="crispEdges"/>
</g>
<g filter="url(#filter3_d_1_128)">
<path d="M16.5804 218.86C20.405 216.289 21.4631 211.06 18.4074 207.611C13.1736 201.702 6.84455 196.828 -0.25573 193.273C-9.84979 188.47 -20.5238 186.241 -31.2352 186.804C-41.9466 187.367 -52.3291 190.702 -61.3685 196.484C-70.4079 202.266 -77.7952 210.297 -82.8087 219.793C-87.8223 229.289 -90.2907 239.924 -89.9728 250.661C-89.6549 261.397 -86.5616 271.868 -80.995 281.049C-75.4285 290.231 -67.579 297.809 -58.2133 303.045C-51.2897 306.915 -43.7126 309.407 -35.8986 310.414C-31.3194 311.004 -27.5859 307.177 -27.6175 302.561C-27.6491 297.943 -31.4484 294.305 -35.9927 293.488C-40.9144 292.603 -45.6752 290.905 -50.0749 288.445C-56.919 284.62 -62.6551 279.081 -66.7229 272.372C-70.7907 265.662 -73.0512 258.011 -73.2835 250.165C-73.5158 242.319 -71.712 234.547 -68.0483 227.608C-64.3846 220.669 -58.9863 214.8 -52.3806 210.575C-45.7749 206.35 -38.1878 203.912 -30.3603 203.501C-22.5328 203.09 -14.7327 204.719 -7.72169 208.228C-3.21343 210.485 0.869377 213.47 4.37137 217.047C7.60154 220.346 12.7488 221.436 16.5804 218.86Z" fill="url(#paint2_linear_1_128)" fill-opacity="0.4" shape-rendering="crispEdges"/>
</g>
<g filter="url(#filter4_d_1_128)">
<path d="M261.247 80.8925C265.488 82.7133 270.463 80.7528 271.694 76.3007C274.067 67.7257 274.581 58.707 273.159 49.8576C271.294 38.243 266.173 27.3979 258.392 18.5846C250.611 9.77135 240.49 3.35249 229.208 0.0752443C217.926 -3.202 205.946 -3.20283 194.664 0.072859C183.381 3.34855 173.259 9.76601 165.477 18.5782C157.695 27.3904 152.572 38.2348 150.706 49.8492C148.839 61.4635 150.304 73.3699 154.932 84.1824C158.459 92.4219 163.711 99.7679 170.297 105.743C173.714 108.843 178.963 107.834 181.573 104.025C184.18 100.22 183.146 95.0704 179.889 91.8098C175.83 87.745 172.56 82.9262 170.279 77.5957C166.897 69.6943 165.826 60.9936 167.19 52.5063C168.554 44.019 172.298 36.0943 177.985 29.6547C183.671 23.2151 191.068 18.5254 199.313 16.1317C207.558 13.7379 216.312 13.7385 224.557 16.1334C232.801 18.5283 240.197 23.219 245.883 29.6594C251.569 36.0998 255.312 44.025 256.675 52.5125C257.594 58.2375 257.405 64.0595 256.147 69.6676C255.137 74.1684 257.013 79.0744 261.247 80.8925Z" fill="url(#paint3_linear_1_128)" fill-opacity="0.4" shape-rendering="crispEdges"/>
</g>
<g filter="url(#filter5_d_1_128)">
<path d="M340.211 167.598L440.18 206.94L356.172 273.967L340.211 167.598Z" fill="url(#paint4_linear_1_128)" fill-opacity="0.4" shape-rendering="crispEdges"/>
</g>
<g filter="url(#filter6_d_1_128)">
<path d="M63.6504 266.881L68.4644 337.189L5.25511 306.21L63.6504 266.881Z" fill="url(#paint5_linear_1_128)" fill-opacity="0.2" shape-rendering="crispEdges"/>
</g>
<g filter="url(#filter7_d_1_128)">
<path d="M245.733 263.81H305.609V323.77H245.733V263.81Z" fill="url(#paint6_linear_1_128)" fill-opacity="0.2" shape-rendering="crispEdges"/>
</g>
<g filter="url(#filter8_d_1_128)">
<path d="M282.086 121.405L290.488 147.3H317.677L295.68 163.303L304.082 189.198L282.086 173.194L260.089 189.198L268.491 163.303L246.495 147.3H273.684L282.086 121.405Z" fill="url(#paint7_linear_1_128)" fill-opacity="0.2" shape-rendering="crispEdges"/>
</g>
</g>
<defs>
<filter id="filter0_f_1_128" x="-94" y="-25" width="564" height="433" filterUnits="userSpaceOnUse" color-interpolation-filters="sRGB">
<feFlood flood-opacity="0" result="BackgroundImageFix"/>
<feBlend mode="normal" in="SourceGraphic" in2="BackgroundImageFix" result="shape"/>
<feGaussianBlur stdDeviation="2" result="effect1_foregroundBlur_1_128"/>
</filter>
<filter id="filter1_d_1_128" x="126.159" y="297.974" width="100.076" height="94.9097" filterUnits="userSpaceOnUse" color-interpolation-filters="sRGB">
<feFlood flood-opacity="0" result="BackgroundImageFix"/>
<feColorMatrix in="SourceAlpha" type="matrix" values="0 0 0 0 0 0 0 0 0 0 0 0 0 0 0 0 0 0 127 0" result="hardAlpha"/>
<feOffset dy="4"/>
<feGaussianBlur stdDeviation="2"/>
<feComposite in2="hardAlpha" operator="out"/>
<feColorMatrix type="matrix" values="0 0 0 0 0 0 0 0 0 0 0 0 0 0 0 0 0 0 0.25 0"/>
<feBlend mode="normal" in2="BackgroundImageFix" result="effect1_dropShadow_1_128"/>
<feBlend mode="normal" in="SourceGraphic" in2="effect1_dropShadow_1_128" result="shape"/>
</filter>
<filter id="filter2_d_1_128" x="23.5025" y="82.7482" width="100.1" height="100.23" filterUnits="userSpaceOnUse" color-interpolation-filters="sRGB">
<feFlood flood-opacity="0" result="BackgroundImageFix"/>
<feColorMatrix in="SourceAlpha" type="matrix" values="0 0 0 0 0 0 0 0 0 0 0 0 0 0 0 0 0 0 127 0" result="hardAlpha"/>
<feOffset dy="4"/>
<feGaussianBlur stdDeviation="2"/>
<feComposite in2="hardAlpha" operator="out"/>
<feColorMatrix type="matrix" values="0 0 0 0 0 0 0 0 0 0 0 0 0 0 0 0 0 0 0.25 0"/>
<feBlend mode="normal" in2="BackgroundImageFix" result="effect1_dropShadow_1_128"/>
<feBlend mode="normal" in="SourceGraphic" in2="effect1_dropShadow_1_128" result="shape"/>
</filter>
<filter id="filter3_d_1_128" x="-94" y="186.719" width="118.186" height="131.756" filterUnits="userSpaceOnUse" color-interpolation-filters="sRGB">
<feFlood flood-opacity="0" result="BackgroundImageFix"/>
<feColorMatrix in="SourceAlpha" type="matrix" values="0 0 0 0 0 0 0 0 0 0 0 0 0 0 0 0 0 0 127 0" result="hardAlpha"/>
<feOffset dy="4"/>
<feGaussianBlur stdDeviation="2"/>
<feComposite in2="hardAlpha" operator="out"/>
<feColorMatrix type="matrix" values="0 0 0 0 0 0 0 0 0 0 0 0 0 0 0 0 0 0 0.25 0"/>
<feBlend mode="normal" in2="BackgroundImageFix" result="effect1_dropShadow_1_128"/>
<feBlend mode="normal" in="SourceGraphic" in2="effect1_dropShadow_1_128" result="shape"/>
</filter>
<filter id="filter4_d_1_128" x="145.917" y="-2.3833" width="132.029" height="117.958" filterUnits="userSpaceOnUse" color-interpolation-filters="sRGB">
<feFlood flood-opacity="0" result="BackgroundImageFix"/>
<feColorMatrix in="SourceAlpha" type="matrix" values="0 0 0 0 0 0 0 0 0 0 0 0 0 0 0 0 0 0 127 0" result="hardAlpha"/>
<feOffset dy="4"/>
<feGaussianBlur stdDeviation="2"/>
<feComposite in2="hardAlpha" operator="out"/>
<feColorMatrix type="matrix" values="0 0 0 0 0 0 0 0 0 0 0 0 0 0 0 0 0 0 0.25 0"/>
<feBlend mode="normal" in2="BackgroundImageFix" result="effect1_dropShadow_1_128"/>
<feBlend mode="normal" in="SourceGraphic" in2="effect1_dropShadow_1_128" result="shape"/>
</filter>
<filter id="filter5_d_1_128" x="336.211" y="167.598" width="107.969" height="114.369" filterUnits="userSpaceOnUse" color-interpolation-filters="sRGB">
<feFlood flood-opacity="0" result="BackgroundImageFix"/>
<feColorMatrix in="SourceAlpha" type="matrix" values="0 0 0 0 0 0 0 0 0 0 0 0 0 0 0 0 0 0 127 0" result="hardAlpha"/>
<feOffset dy="4"/>
<feGaussianBlur stdDeviation="2"/>
<feComposite in2="hardAlpha" operator="out"/>
<feColorMatrix type="matrix" values="0 0 0 0 0 0 0 0 0 0 0 0 0 0 0 0 0 0 0.25 0"/>
<feBlend mode="normal" in2="BackgroundImageFix" result="effect1_dropShadow_1_128"/>
<feBlend mode="normal" in="SourceGraphic" in2="effect1_dropShadow_1_128" result="shape"/>
</filter>
<filter id="filter6_d_1_128" x="1.25511" y="266.881" width="71.2093" height="78.3073" filterUnits="userSpaceOnUse" color-interpolation-filters="sRGB">
<feFlood flood-opacity="0" result="BackgroundImageFix"/>
<feColorMatrix in="SourceAlpha" type="matrix" values="0 0 0 0 0 0 0 0 0 0 0 0 0 0 0 0 0 0 127 0" result="hardAlpha"/>
<feOffset dy="4"/>
<feGaussianBlur stdDeviation="2"/>
<feComposite in2="hardAlpha" operator="out"/>
<feColorMatrix type="matrix" values="0 0 0 0 0 0 0 0 0 0 0 0 0 0 0 0 0 0 0.25 0"/>
<feBlend mode="normal" in2="BackgroundImageFix" result="effect1_dropShadow_1_128"/>
<feBlend mode="normal" in="SourceGraphic" in2="effect1_dropShadow_1_128" result="shape"/>
</filter>
<filter id="filter7_d_1_128" x="241.733" y="263.81" width="67.8759" height="67.9601" filterUnits="userSpaceOnUse" color-interpolation-filters="sRGB">
<feFlood flood-opacity="0" result="BackgroundImageFix"/>
<feColorMatrix in="SourceAlpha" type="matrix" values="0 0 0 0 0 0 0 0 0 0 0 0 0 0 0 0 0 0 127 0" result="hardAlpha"/>
<feOffset dy="4"/>
<feGaussianBlur stdDeviation="2"/>
<feComposite in2="hardAlpha" operator="out"/>
<feColorMatrix type="matrix" values="0 0 0 0 0 0 0 0 0 0 0 0 0 0 0 0 0 0 0.25 0"/>
<feBlend mode="normal" in2="BackgroundImageFix" result="effect1_dropShadow_1_128"/>
<feBlend mode="normal" in="SourceGraphic" in2="effect1_dropShadow_1_128" result="shape"/>
</filter>
<filter id="filter8_d_1_128" x="242.495" y="121.405" width="79.1817" height="75.793" filterUnits="userSpaceOnUse" color-interpolation-filters="sRGB">
<feFlood flood-opacity="0" result="BackgroundImageFix"/>
<feColorMatrix in="SourceAlpha" type="matrix" values="0 0 0 0 0 0 0 0 0 0 0 0 0 0 0 0 0 0 127 0" result="hardAlpha"/>
<feOffset dy="4"/>
<feGaussianBlur stdDeviation="2"/>
<feComposite in2="hardAlpha" operator="out"/>
<feColorMatrix type="matrix" values="0 0 0 0 0 0 0 0 0 0 0 0 0 0 0 0 0 0 0.25 0"/>
<feBlend mode="normal" in2="BackgroundImageFix" result="effect1_dropShadow_1_128"/>
<feBlend mode="normal" in="SourceGraphic" in2="effect1_dropShadow_1_128" result="shape"/>
</filter>
<linearGradient id="paint0_linear_1_128" x1="159.106" y1="301.269" x2="193.371" y2="386.852" gradientUnits="userSpaceOnUse">
<stop stop-color="white"/>
<stop offset="1" stop-color="white" stop-opacity="0"/>
</linearGradient>
<linearGradient id="paint1_linear_1_128" x1="56.4613" y1="86.0551" x2="90.7267" y2="171.638" gradientUnits="userSpaceOnUse">
<stop stop-color="white"/>
<stop offset="1" stop-color="white" stop-opacity="0"/>
</linearGradient>
<linearGradient id="paint2_linear_1_128" x1="-107.107" y1="199.567" x2="56.0405" y2="281.828" gradientUnits="userSpaceOnUse">
<stop stop-color="white"/>
<stop offset="1" stop-color="white" stop-opacity="0"/>
</linearGradient>
<linearGradient id="paint3_linear_1_128" x1="188.909" y1="2.05474" x2="235.066" y2="117.337" gradientUnits="userSpaceOnUse">
<stop stop-color="white"/>
<stop offset="1" stop-color="white" stop-opacity="0"/>
</linearGradient>
<linearGradient id="paint4_linear_1_128" x1="340.211" y1="167.598" x2="417.631" y2="264.632" gradientUnits="userSpaceOnUse">
<stop stop-color="white"/>
<stop offset="1" stop-color="white" stop-opacity="0"/>
</linearGradient>
<linearGradient id="paint5_linear_1_128" x1="63.6504" y1="266.881" x2="27.8485" y2="339.932" gradientUnits="userSpaceOnUse">
<stop stop-color="white"/>
<stop offset="1" stop-color="white" stop-opacity="0"/>
</linearGradient>
<linearGradient id="paint6_linear_1_128" x1="275.671" y1="263.81" x2="275.671" y2="323.77" gradientUnits="userSpaceOnUse">
<stop stop-color="white"/>
<stop offset="1" stop-color="white" stop-opacity="0"/>
</linearGradient>
<linearGradient id="paint7_linear_1_128" x1="282.086" y1="121.405" x2="282.086" y2="196.355" gradientUnits="userSpaceOnUse">
<stop stop-color="white"/>
<stop offset="1" stop-color="#D9D9D9" stop-opacity="0"/>
</linearGradient>
</defs>
</svg>
