<svg width="46" height="46" viewBox="0 0 46 46" fill="none" xmlns="http://www.w3.org/2000/svg">
<path d="M46 23C46 35.7025 35.7025 46 23 46C10.2975 46 0 35.7025 0 23C0 10.2975 10.2975 0 23 0C35.7025 0 46 10.2975 46 23ZM5.40626 23C5.40626 32.7168 13.2832 40.5937 23 40.5937C32.7168 40.5937 40.5937 32.7168 40.5937 23C40.5937 13.2832 32.7168 5.40626 23 5.40626C13.2832 5.40626 5.40626 13.2832 5.40626 23Z" fill="#F7F8FA"/>
<path d="M23 2.70313C23 1.21023 24.2143 -0.0163905 25.6969 0.158665C27.7911 0.405929 29.8456 0.940531 31.8017 1.75077C34.5922 2.90663 37.1277 4.6008 39.2635 6.73655C41.3992 8.87229 43.0934 11.4078 44.2492 14.1983C45.0595 16.1544 45.5941 18.2089 45.8413 20.3031C46.0164 21.7857 44.7898 23 43.2969 23C41.804 23 40.615 21.7828 40.3865 20.3075C40.1722 18.9235 39.7929 17.5669 39.2545 16.2672C38.3703 14.1326 37.0744 12.1931 35.4407 10.5593C33.8069 8.92561 31.8674 7.62967 29.7328 6.7455C28.4331 6.20711 27.0765 5.82783 25.6925 5.61351C24.2172 5.38503 23 4.19602 23 2.70313Z" fill="url(#paint0_linear_1_177)"/>
<defs>
<linearGradient id="paint0_linear_1_177" x1="23" y1="0" x2="23" y2="46" gradientUnits="userSpaceOnUse">
<stop stop-color="#CC63D7" stop-opacity="0.81"/>
<stop offset="1" stop-color="#9263D7"/>
</linearGradient>
</defs>
</svg>
