<svg width="163" height="25" viewBox="0 0 163 25" fill="none" xmlns="http://www.w3.org/2000/svg">
<path d="M15.808 7.936C15.744 7.82933 15.52 7.66933 15.136 7.456C14.752 7.22133 14.272 6.976 13.696 6.72C13.12 6.464 12.4907 6.24 11.808 6.048C11.1253 5.856 10.4427 5.76 9.76 5.76C8.864 5.76 8.17067 5.92 7.68 6.24C7.18933 6.53867 6.944 7.008 6.944 7.648C6.944 8.16 7.12533 8.56533 7.488 8.864C7.872 9.16267 8.416 9.42933 9.12 9.664C9.824 9.87733 10.688 10.1333 11.712 10.432C13.1627 10.816 14.4213 11.2853 15.488 11.84C16.5547 12.3733 17.3653 13.0667 17.92 13.92C18.496 14.7733 18.784 15.904 18.784 17.312C18.784 18.592 18.5493 19.68 18.08 20.576C17.6107 21.4507 16.9707 22.1653 16.16 22.72C15.3707 23.2533 14.464 23.648 13.44 23.904C12.416 24.1387 11.36 24.256 10.272 24.256C9.16267 24.256 8.02133 24.1493 6.848 23.936C5.696 23.7013 4.58667 23.3813 3.52 22.976C2.45333 22.5493 1.472 22.0373 0.576 21.44L2.88 16.864C2.96533 16.9707 3.24267 17.1733 3.712 17.472C4.18133 17.7493 4.75733 18.048 5.44 18.368C6.144 18.6667 6.92267 18.9333 7.776 19.168C8.62933 19.4027 9.49333 19.52 10.368 19.52C11.3067 19.52 12 19.3707 12.448 19.072C12.9173 18.7733 13.152 18.3573 13.152 17.824C13.152 17.248 12.9067 16.8 12.416 16.48C11.9467 16.16 11.296 15.872 10.464 15.616C9.65333 15.36 8.71467 15.072 7.648 14.752C6.26133 14.3253 5.10933 13.8453 4.192 13.312C3.296 12.7787 2.624 12.128 2.176 11.36C1.74933 10.592 1.536 9.632 1.536 8.48C1.536 6.88 1.90933 5.536 2.656 4.448C3.424 3.33867 4.448 2.50667 5.728 1.952C7.008 1.376 8.40533 1.088 9.92 1.088C10.9867 1.088 12.0107 1.216 12.992 1.472C13.9947 1.728 14.9227 2.048 15.776 2.432C16.6507 2.816 17.4293 3.2 18.112 3.584L15.808 7.936ZM29.4795 24.32C28.0502 24.32 26.7808 24.0853 25.6715 23.616C24.5622 23.1467 23.6128 22.5067 22.8235 21.696C22.0555 20.8853 21.4688 19.9573 21.0635 18.912C20.6582 17.8667 20.4555 16.7573 20.4555 15.584C20.4555 14.048 20.8075 12.6187 21.5115 11.296C22.2368 9.97333 23.2715 8.90667 24.6155 8.096C25.9595 7.28533 27.5808 6.88 29.4795 6.88C31.3995 6.88 33.0208 7.296 34.3435 8.128C35.6875 8.93867 36.6902 10.0053 37.3515 11.328L32.3595 12.832C32.0395 12.32 31.6235 11.9253 31.1115 11.648C30.6208 11.3707 30.0662 11.232 29.4475 11.232C28.7435 11.232 28.1035 11.4133 27.5275 11.776C26.9728 12.1387 26.5248 12.64 26.1835 13.28C25.8635 13.92 25.7035 14.688 25.7035 15.584C25.7035 16.4587 25.8742 17.2267 26.2155 17.888C26.5568 18.5493 27.0048 19.072 27.5595 19.456C28.1142 19.8187 28.7435 20 29.4475 20C29.8742 20 30.2688 19.936 30.6315 19.808C31.0155 19.6587 31.3568 19.456 31.6555 19.2C31.9755 18.944 32.2208 18.656 32.3915 18.336L37.3835 19.872C36.9782 20.7253 36.3915 21.4933 35.6235 22.176C34.8768 22.8373 33.9915 23.36 32.9675 23.744C31.9435 24.128 30.7808 24.32 29.4795 24.32ZM55.8895 24H50.7695V14.56C50.7695 13.472 50.5455 12.672 50.0975 12.16C49.6708 11.648 49.0948 11.392 48.3695 11.392C47.9855 11.392 47.5482 11.52 47.0575 11.776C46.5882 12.0107 46.1508 12.352 45.7455 12.8C45.3402 13.248 45.0308 13.7707 44.8175 14.368V24H39.6975V0.639999H44.8175V10.016C45.4362 9.01333 46.2468 8.24533 47.2495 7.712C48.2735 7.15733 49.3935 6.88 50.6095 6.88C51.7615 6.88 52.6788 7.072 53.3615 7.456C54.0655 7.84 54.5988 8.352 54.9615 8.992C55.3242 9.61067 55.5695 10.2933 55.6975 11.04C55.8255 11.7867 55.8895 12.5227 55.8895 13.248V24ZM67.2913 24.32C65.8619 24.32 64.5819 24.0853 63.4513 23.616C62.3419 23.1467 61.4033 22.5067 60.6353 21.696C59.8673 20.8853 59.2806 19.9573 58.8753 18.912C58.4913 17.8667 58.2993 16.768 58.2993 15.616C58.2993 14.4427 58.4913 13.3333 58.8753 12.288C59.2806 11.2427 59.8673 10.3147 60.6353 9.504C61.4033 8.69333 62.3419 8.05333 63.4513 7.584C64.5819 7.11467 65.8619 6.88 67.2913 6.88C68.7206 6.88 69.9899 7.11467 71.0993 7.584C72.2086 8.05333 73.1473 8.69333 73.9153 9.504C74.6833 10.3147 75.2699 11.2427 75.6753 12.288C76.0806 13.3333 76.2833 14.4427 76.2833 15.616C76.2833 16.768 76.0806 17.8667 75.6753 18.912C75.2699 19.9573 74.6833 20.8853 73.9153 21.696C73.1473 22.5067 72.2086 23.1467 71.0993 23.616C69.9899 24.0853 68.7206 24.32 67.2913 24.32ZM63.5473 15.616C63.5473 16.4907 63.7073 17.2587 64.0273 17.92C64.3686 18.5813 64.8166 19.0933 65.3713 19.456C65.9259 19.8187 66.5659 20 67.2913 20C67.9953 20 68.6246 19.8187 69.1793 19.456C69.7553 19.072 70.2033 18.5493 70.5233 17.888C70.8433 17.2267 71.0033 16.4693 71.0033 15.616C71.0033 14.7413 70.8433 13.9733 70.5233 13.312C70.2033 12.6507 69.7553 12.1387 69.1793 11.776C68.6246 11.4133 67.9953 11.232 67.2913 11.232C66.5659 11.232 65.9259 11.4133 65.3713 11.776C64.8166 12.1387 64.3686 12.6507 64.0273 13.312C63.7073 13.9733 63.5473 14.7413 63.5473 15.616ZM86.8225 24.32C85.3932 24.32 84.1132 24.0853 82.9825 23.616C81.8732 23.1467 80.9345 22.5067 80.1665 21.696C79.3985 20.8853 78.8118 19.9573 78.4065 18.912C78.0225 17.8667 77.8305 16.768 77.8305 15.616C77.8305 14.4427 78.0225 13.3333 78.4065 12.288C78.8118 11.2427 79.3985 10.3147 80.1665 9.504C80.9345 8.69333 81.8732 8.05333 82.9825 7.584C84.1132 7.11467 85.3932 6.88 86.8225 6.88C88.2518 6.88 89.5212 7.11467 90.6305 7.584C91.7398 8.05333 92.6785 8.69333 93.4465 9.504C94.2145 10.3147 94.8012 11.2427 95.2065 12.288C95.6118 13.3333 95.8145 14.4427 95.8145 15.616C95.8145 16.768 95.6118 17.8667 95.2065 18.912C94.8012 19.9573 94.2145 20.8853 93.4465 21.696C92.6785 22.5067 91.7398 23.1467 90.6305 23.616C89.5212 24.0853 88.2518 24.32 86.8225 24.32ZM83.0785 15.616C83.0785 16.4907 83.2385 17.2587 83.5585 17.92C83.8998 18.5813 84.3478 19.0933 84.9025 19.456C85.4572 19.8187 86.0972 20 86.8225 20C87.5265 20 88.1558 19.8187 88.7105 19.456C89.2865 19.072 89.7345 18.5493 90.0545 17.888C90.3745 17.2267 90.5345 16.4693 90.5345 15.616C90.5345 14.7413 90.3745 13.9733 90.0545 13.312C89.7345 12.6507 89.2865 12.1387 88.7105 11.776C88.1558 11.4133 87.5265 11.232 86.8225 11.232C86.0972 11.232 85.4572 11.4133 84.9025 11.776C84.3478 12.1387 83.8998 12.6507 83.5585 13.312C83.2385 13.9733 83.0785 14.7413 83.0785 15.616ZM98.2898 0.639999H103.41V18.016C103.41 18.72 103.538 19.2213 103.794 19.52C104.05 19.8187 104.412 19.968 104.882 19.968C105.202 19.968 105.522 19.9253 105.842 19.84C106.183 19.7333 106.482 19.616 106.738 19.488L107.41 23.328C106.77 23.6267 106.034 23.8613 105.202 24.032C104.37 24.2027 103.591 24.288 102.866 24.288C101.415 24.288 100.284 23.904 99.4738 23.136C98.6844 22.3467 98.2898 21.2373 98.2898 19.808V0.639999ZM110.161 24V1.28H119.569C120.55 1.28 121.446 1.48267 122.257 1.888C123.089 2.29333 123.803 2.848 124.401 3.552C124.998 4.23466 125.467 5.00267 125.809 5.856C126.15 6.688 126.321 7.54133 126.321 8.416C126.321 9.65333 126.043 10.8267 125.489 11.936C124.955 13.024 124.198 13.9093 123.217 14.592C122.235 15.2747 121.083 15.616 119.761 15.616H112.401V24H110.161ZM112.401 13.632H119.665C120.561 13.632 121.339 13.3867 122.001 12.896C122.662 12.4053 123.174 11.7653 123.537 10.976C123.899 10.1867 124.081 9.33333 124.081 8.416C124.081 7.47733 123.867 6.61333 123.441 5.824C123.014 5.03467 122.449 4.416 121.745 3.968C121.062 3.49867 120.305 3.264 119.473 3.264H112.401V13.632ZM136.506 24.32C135.312 24.32 134.202 24.096 133.178 23.648C132.154 23.1787 131.269 22.5493 130.522 21.76C129.776 20.9493 129.189 20.0213 128.762 18.976C128.357 17.9307 128.154 16.8107 128.154 15.616C128.154 14.0587 128.506 12.6293 129.21 11.328C129.936 10.0267 130.928 8.992 132.186 8.224C133.445 7.43467 134.874 7.04 136.474 7.04C138.117 7.04 139.546 7.43467 140.762 8.224C142 9.01333 142.97 10.0587 143.674 11.36C144.378 12.64 144.73 14.048 144.73 15.584C144.73 15.7547 144.73 15.9253 144.73 16.096C144.73 16.2453 144.72 16.3627 144.698 16.448H130.426C130.533 17.6427 130.864 18.7093 131.418 19.648C131.994 20.5653 132.73 21.3013 133.626 21.856C134.544 22.3893 135.536 22.656 136.602 22.656C137.69 22.656 138.714 22.3787 139.674 21.824C140.656 21.2693 141.338 20.544 141.722 19.648L143.61 20.16C143.269 20.9493 142.746 21.664 142.042 22.304C141.338 22.944 140.506 23.4453 139.546 23.808C138.608 24.1493 137.594 24.32 136.506 24.32ZM130.362 14.88H142.682C142.597 13.664 142.266 12.5973 141.69 11.68C141.136 10.7627 140.4 10.048 139.482 9.536C138.586 9.00267 137.594 8.736 136.506 8.736C135.418 8.736 134.426 9.00267 133.53 9.536C132.634 10.048 131.898 10.7733 131.322 11.712C130.768 12.6293 130.448 13.6853 130.362 14.88ZM162.104 24H159.928V14.688C159.928 12.7253 159.64 11.296 159.064 10.4C158.488 9.48267 157.581 9.024 156.344 9.024C155.49 9.024 154.648 9.23733 153.816 9.664C152.984 10.0693 152.248 10.6347 151.608 11.36C150.989 12.064 150.541 12.8747 150.264 13.792V24H148.088V7.328H150.072V11.104C150.52 10.2933 151.106 9.58933 151.832 8.992C152.557 8.37333 153.378 7.89333 154.296 7.552C155.213 7.21067 156.162 7.04 157.144 7.04C158.061 7.04 158.84 7.21067 159.48 7.552C160.12 7.89333 160.632 8.384 161.016 9.024C161.4 9.64267 161.677 10.4 161.847 11.296C162.018 12.1707 162.104 13.152 162.104 14.24V24Z" fill="#9163D7"/>
</svg>
