<svg width="85" height="88" viewBox="0 0 85 88" fill="none" xmlns="http://www.w3.org/2000/svg">
<circle cx="29.6996" cy="83.6" r="4.4" fill="#7B57EC"/>
<path d="M30.9074 10.9116C13.9445 16.9655 4.8955 35.7473 10.8021 52.7904C13.8999 61.7289 20.4432 68.4809 28.4058 72.0847C29.7914 72.7137 31.2946 71.4922 30.9803 69.9957C30.1579 66.1066 29.6765 60.0852 31.3637 52.3197C32.1913 48.5593 33.9769 40.9933 43.1053 31.1161C49.3941 24.4997 55.8407 21.6234 53.2784 35.0338C48.7612 58.6376 40.7084 68.7551 36.1157 72.7695C35.4423 73.3532 35.7605 74.4397 36.6256 74.5777C41.9829 75.4649 47.6214 75.0578 53.102 73.1001C69.9867 67.0733 79.0117 48.4749 73.2976 31.4818C67.3768 13.9766 48.2872 4.7132 30.9074 10.9116Z" fill="url(#paint0_linear_1_174)"/>
<defs>
<linearGradient id="paint0_linear_1_174" x1="52.8771" y1="81.8451" x2="35.642" y2="12.5539" gradientUnits="userSpaceOnUse">
<stop stop-color="#7253F6"/>
<stop offset="1" stop-color="#9866CF"/>
</linearGradient>
</defs>
</svg>
